{
    "asset" : {
        "generator" : "Khronos glTF Blender I/O v1.4.40",
        "version" : "2.0"
    },
    "scene" : 0,
    "scenes" : [
        {
            "extras" : {
                "glTF2ExportSettings" : {
                    "export_animations" : 1,
                    "export_cameras" : 0,
                    "export_colors" : 1,
                    "export_extras" : 1,
                    "export_force_sampling" : 0,
                    "export_format" : "GLTF_EMBEDDED",
                    "export_image_format" : "AUTO",
                    "export_lights" : 0,
                    "export_morph" : 1,
                    "export_normals" : 1,
                    "export_skins" : 1,
                    "export_texcoords" : 1,
                    "export_yup" : 1,
                    "use_selection" : 1
                }
            },
            "name" : "Scene",
            "nodes" : [
                0
            ]
        }
    ],
    "nodes" : [
        {
            "extras" : {
                "sparkar_optimization" : {
                    "InvertedReducePercentage" : 0
                },
                "spark_blender_addon" : 1
            },
            "mesh" : 0,
            "name" : "Plane",
            "scale" : [
                1.0981875658035278,
                1.0981875658035278,
                3.4900946617126465
            ]
        }
    ],
    "materials" : [
        {
            "doubleSided" : true,
            "name" : "Material.001",
            "pbrMetallicRoughness" : {
                "baseColorFactor" : [
                    0.4868970215320587,
                    0.18176786601543427,
                    0.04392210766673088,
                    1
                ],
                "metallicFactor" : 0.5952380895614624,
                "roughnessFactor" : 0.4404761791229248
            }
        },
        {
            "doubleSided" : true,
            "name" : "Material.002",
            "pbrMetallicRoughness" : {
                "baseColorFactor" : [
                    0,
                    0,
                    0,
                    1
                ],
                "metallicFactor" : 0,
                "roughnessFactor" : 0.5
            }
        },
        {
            "doubleSided" : true,
            "name" : "Material.003",
            "pbrMetallicRoughness" : {
                "baseColorFactor" : [
                    0.008569823578000069,
                    0.48689723014831543,
                    0,
                    1
                ],
                "metallicFactor" : 0,
                "roughnessFactor" : 0.5
            }
        },
        {
            "doubleSided" : true,
            "name" : "Material.004",
            "pbrMetallicRoughness" : {
                "baseColorFactor" : [
                    0.326375812292099,
                    0.326375812292099,
                    0.326375812292099,
                    1
                ],
                "metallicFactor" : 0,
                "roughnessFactor" : 0.5
            }
        },
        {
            "doubleSided" : true,
            "name" : "Material.005",
            "pbrMetallicRoughness" : {
                "baseColorFactor" : [
                    0.800000011920929,
                    0.800000011920929,
                    0.800000011920929,
                    1
                ],
                "metallicFactor" : 0,
                "roughnessFactor" : 0.5
            }
        },
        {
            "doubleSided" : true,
            "name" : "Material.006",
            "pbrMetallicRoughness" : {
                "baseColorFactor" : [
                    0.800000011920929,
                    0.800000011920929,
                    0.800000011920929,
                    1
                ],
                "metallicFactor" : 0.7976190447807312,
                "roughnessFactor" : 0.0833333283662796
            }
        }
    ],
    "meshes" : [
        {
            "name" : "Plane",
            "primitives" : [
                {
                    "attributes" : {
                        "POSITION" : 0,
                        "NORMAL" : 1,
                        "TEXCOORD_0" : 2
                    },
                    "indices" : 3,
                    "material" : 0
                },
                {
                    "attributes" : {
                        "POSITION" : 4,
                        "NORMAL" : 5,
                        "TEXCOORD_0" : 6
                    },
                    "indices" : 7,
                    "material" : 1
                },
                {
                    "attributes" : {
                        "POSITION" : 8,
                        "NORMAL" : 9,
                        "TEXCOORD_0" : 10
                    },
                    "indices" : 11,
                    "material" : 2
                },
                {
                    "attributes" : {
                        "POSITION" : 12,
                        "NORMAL" : 13,
                        "TEXCOORD_0" : 14
                    },
                    "indices" : 15,
                    "material" : 3
                },
                {
                    "attributes" : {
                        "POSITION" : 16,
                        "NORMAL" : 17,
                        "TEXCOORD_0" : 18
                    },
                    "indices" : 19,
                    "material" : 4
                },
                {
                    "attributes" : {
                        "POSITION" : 20,
                        "NORMAL" : 21,
                        "TEXCOORD_0" : 22
                    },
                    "indices" : 23,
                    "material" : 5
                }
            ]
        }
    ],
    "accessors" : [
        {
            "bufferView" : 0,
            "componentType" : 5126,
            "count" : 1958,
            "max" : [
                1.1179035902023315,
                0.28248095512390137,
                1.5958161354064941
            ],
            "min" : [
                -1.1179035902023315,
                0.0029658228158950806,
                -0.9108632206916809
            ],
            "type" : "VEC3"
        },
        {
            "bufferView" : 1,
            "componentType" : 5126,
            "count" : 1958,
            "type" : "VEC3"
        },
        {
            "bufferView" : 2,
            "componentType" : 5126,
            "count" : 1958,
            "type" : "VEC2"
        },
        {
            "bufferView" : 3,
            "componentType" : 5123,
            "count" : 3048,
            "type" : "SCALAR"
        },
        {
            "bufferView" : 4,
            "componentType" : 5126,
            "count" : 1936,
            "max" : [
                1.2822144031524658,
                0.11882579326629639,
                1.37297523021698
            ],
            "min" : [
                -1.344221591949463,
                -0.5224673748016357,
                -0.6882739663124084
            ],
            "type" : "VEC3"
        },
        {
            "bufferView" : 5,
            "componentType" : 5126,
            "count" : 1936,
            "type" : "VEC3"
        },
        {
            "bufferView" : 6,
            "componentType" : 5126,
            "count" : 1936,
            "type" : "VEC2"
        },
        {
            "bufferView" : 7,
            "componentType" : 5123,
            "count" : 2904,
            "type" : "SCALAR"
        },
        {
            "bufferView" : 8,
            "componentType" : 5126,
            "count" : 5568,
            "max" : [
                1.222180962562561,
                -0.025770068168640137,
                1.3501529693603516
            ],
            "min" : [
                -1.3037465810775757,
                -0.5531554222106934,
                -0.6635527014732361
            ],
            "type" : "VEC3"
        },
        {
            "bufferView" : 9,
            "componentType" : 5126,
            "count" : 5568,
            "type" : "VEC3"
        },
        {
            "bufferView" : 10,
            "componentType" : 5126,
            "count" : 5568,
            "type" : "VEC2"
        },
        {
            "bufferView" : 11,
            "componentType" : 5123,
            "count" : 7632,
            "type" : "SCALAR"
        },
        {
            "bufferView" : 12,
            "componentType" : 5126,
            "count" : 36,
            "max" : [
                0.2155745029449463,
                0.0742044448852539,
                1.37297523021698
            ],
            "min" : [
                -0.2799120545387268,
                -0.42727530002593994,
                -0.6882739663124084
            ],
            "type" : "VEC3"
        },
        {
            "bufferView" : 13,
            "componentType" : 5126,
            "count" : 36,
            "type" : "VEC3"
        },
        {
            "bufferView" : 14,
            "componentType" : 5126,
            "count" : 36,
            "type" : "VEC2"
        },
        {
            "bufferView" : 15,
            "componentType" : 5123,
            "count" : 54,
            "type" : "SCALAR"
        },
        {
            "bufferView" : 16,
            "componentType" : 5126,
            "count" : 84,
            "max" : [
                0.2155745029449463,
                0.05210161209106445,
                1.3562147617340088
            ],
            "min" : [
                -0.2799120545387268,
                -0.4260324239730835,
                -0.6711353659629822
            ],
            "type" : "VEC3"
        },
        {
            "bufferView" : 17,
            "componentType" : 5126,
            "count" : 84,
            "type" : "VEC3"
        },
        {
            "bufferView" : 18,
            "componentType" : 5126,
            "count" : 84,
            "type" : "VEC2"
        },
        {
            "bufferView" : 19,
            "componentType" : 5123,
            "count" : 126,
            "type" : "SCALAR"
        },
        {
            "bufferView" : 20,
            "componentType" : 5126,
            "count" : 424,
            "max" : [
                1.2822144031524658,
                -0.17877137660980225,
                1.3020100593566895
            ],
            "min" : [
                -1.344221591949463,
                -0.3998678922653198,
                -0.6153194904327393
            ],
            "type" : "VEC3"
        },
        {
            "bufferView" : 21,
            "componentType" : 5126,
            "count" : 424,
            "type" : "VEC3"
        },
        {
            "bufferView" : 22,
            "componentType" : 5126,
            "count" : 424,
            "type" : "VEC2"
        },
        {
            "bufferView" : 23,
            "componentType" : 5123,
            "count" : 684,
            "type" : "SCALAR"
        }
    ],
    "bufferViews" : [
        {
            "buffer" : 0,
            "byteLength" : 23496,
            "byteOffset" : 0
        },
        {
            "buffer" : 0,
            "byteLength" : 23496,
            "byteOffset" : 23496
        },
        {
            "buffer" : 0,
            "byteLength" : 15664,
            "byteOffset" : 46992
        },
        {
            "buffer" : 0,
            "byteLength" : 6096,
            "byteOffset" : 62656
        },
        {
            "buffer" : 0,
            "byteLength" : 23232,
            "byteOffset" : 68752
        },
        {
            "buffer" : 0,
            "byteLength" : 23232,
            "byteOffset" : 91984
        },
        {
            "buffer" : 0,
            "byteLength" : 15488,
            "byteOffset" : 115216
        },
        {
            "buffer" : 0,
            "byteLength" : 5808,
            "byteOffset" : 130704
        },
        {
            "buffer" : 0,
            "byteLength" : 66816,
            "byteOffset" : 136512
        },
        {
            "buffer" : 0,
            "byteLength" : 66816,
            "byteOffset" : 203328
        },
        {
            "buffer" : 0,
            "byteLength" : 44544,
            "byteOffset" : 270144
        },
        {
            "buffer" : 0,
            "byteLength" : 15264,
            "byteOffset" : 314688
        },
        {
            "buffer" : 0,
            "byteLength" : 432,
            "byteOffset" : 329952
        },
        {
            "buffer" : 0,
            "byteLength" : 432,
            "byteOffset" : 330384
        },
        {
            "buffer" : 0,
            "byteLength" : 288,
            "byteOffset" : 330816
        },
        {
            "buffer" : 0,
            "byteLength" : 108,
            "byteOffset" : 331104
        },
        {
            "buffer" : 0,
            "byteLength" : 1008,
            "byteOffset" : 331212
        },
        {
            "buffer" : 0,
            "byteLength" : 1008,
            "byteOffset" : 332220
        },
        {
            "buffer" : 0,
            "byteLength" : 672,
            "byteOffset" : 333228
        },
        {
            "buffer" : 0,
            "byteLength" : 252,
            "byteOffset" : 333900
        },
        {
            "buffer" : 0,
            "byteLength" : 5088,
            "byteOffset" : 334152
        },
        {
            "buffer" : 0,
            "byteLength" : 5088,
            "byteOffset" : 339240
        },
        {
            "buffer" : 0,
            "byteLength" : 3392,
            "byteOffset" : 344328
        },
        {
            "buffer" : 0,
            "byteLength" : 1368,
            "byteOffset" : 347720
        }
    ],
    "buffers" : [
        {
            "byteLength" : 349088,
            "uri" : "data:application/octet-stream;base64,"
        }
    ]
}
