{
    "asset" : {
        "generator" : "Khronos glTF Blender I/O v3.4.50",
        "version" : "2.0"
    },
    "scene" : 0,
    "scenes" : [
        {
            "name" : "Scene",
            "nodes" : [
                6
            ]
        }
    ],
    "nodes" : [
        {
            "name" : "Bone"
        },
        {
            "name" : "cross",
            "translation" : [
                0,
                0.013231277465820312,
                0
            ]
        },
        {
            "name" : "jewls",
            "translation" : [
                0,
                0.14264965057373047,
                0
            ]
        },
        {
            "name" : "cross.001",
            "translation" : [
                0,
                0.1785731315612793,
                0
            ]
        },
        {
            "name" : "neutral_bone",
            "rotation" : [
                -0.7071068286895752,
                0,
                0,
                0.7071068286895752
            ]
        },
        {
            "mesh" : 0,
            "name" : "Circle",
            "skin" : 0
        },
        {
            "children" : [
                5,
                0,
                1,
                2,
                3,
                4
            ],
            "name" : "Armature",
            "translation" : [
                0,
                -0.37803176045417786,
                0
            ]
        }
    ],
    "meshes" : [
        {
            "name" : "Circle",
            "primitives" : [
                {
                    "attributes" : {
                        "COLOR_0" : 0,
                        "POSITION" : 1,
                        "TEXCOORD_0" : 2,
                        "NORMAL" : 3,
                        "JOINTS_0" : 4,
                        "WEIGHTS_0" : 5
                    },
                    "indices" : 6
                }
            ]
        }
    ],
    "skins" : [
        {
            "inverseBindMatrices" : 7,
            "joints" : [
                0,
                1,
                2,
                3,
                4
            ],
            "name" : "Armature"
        }
    ],
    "accessors" : [
        {
            "bufferView" : 0,
            "componentType" : 5123,
            "count" : 10702,
            "normalized" : true,
            "type" : "VEC4"
        },
        {
            "bufferView" : 1,
            "componentType" : 5126,
            "count" : 10702,
            "max" : [
                1.071000099182129,
                0.2217966914176941,
                1.0706491470336914
            ],
            "min" : [
                -1.0559096336364746,
                -2.4823718070983887,
                -1.0777276754379272
            ],
            "type" : "VEC3"
        },
        {
            "bufferView" : 2,
            "componentType" : 5126,
            "count" : 10702,
            "type" : "VEC2"
        },
        {
            "bufferView" : 3,
            "componentType" : 5126,
            "count" : 10702,
            "type" : "VEC3"
        },
        {
            "bufferView" : 4,
            "componentType" : 5121,
            "count" : 10702,
            "type" : "VEC4"
        },
        {
            "bufferView" : 5,
            "componentType" : 5126,
            "count" : 10702,
            "type" : "VEC4"
        },
        {
            "bufferView" : 6,
            "componentType" : 5123,
            "count" : 16062,
            "type" : "SCALAR"
        },
        {
            "bufferView" : 7,
            "componentType" : 5126,
            "count" : 5,
            "type" : "MAT4"
        }
    ],
    "bufferViews" : [
        {
            "buffer" : 0,
            "byteLength" : 85616,
            "byteOffset" : 0,
            "target" : 34962
        },
        {
            "buffer" : 0,
            "byteLength" : 128424,
            "byteOffset" : 85616,
            "target" : 34962
        },
        {
            "buffer" : 0,
            "byteLength" : 85616,
            "byteOffset" : 214040,
            "target" : 34962
        },
        {
            "buffer" : 0,
            "byteLength" : 128424,
            "byteOffset" : 299656,
            "target" : 34962
        },
        {
            "buffer" : 0,
            "byteLength" : 42808,
            "byteOffset" : 428080,
            "target" : 34962
        },
        {
            "buffer" : 0,
            "byteLength" : 171232,
            "byteOffset" : 470888,
            "target" : 34962
        },
        {
            "buffer" : 0,
            "byteLength" : 32124,
            "byteOffset" : 642120,
            "target" : 34963
        },
        {
            "buffer" : 0,
            "byteLength" : 320,
            "byteOffset" : 674244
        }
    ],
    "buffers" : [
        {
            "byteLength" : 674564,
            "uri" : "data:application/octet-stream;base64,"
        }
    ]
}
